<svg width="160" height="40" viewBox="0 0 160 40" fill="none" xmlns="http://www.w3.org/2000/svg">
<rect x="0.5" y="0.5" width="159" height="39" rx="19.5" stroke="#FF6C00"/>
<path d="M26.5796 16.4336H29.1284C30.2339 16.4336 31.0679 16.5938 31.6304 16.9141C32.1929 17.2344 32.4741 17.7871 32.4741 18.5723C32.4741 18.9004 32.4155 19.1973 32.2984 19.4629C32.1851 19.7246 32.0191 19.9414 31.8003 20.1133C31.5816 20.2812 31.312 20.3945 30.9917 20.4531V20.5117C31.3237 20.5703 31.6187 20.6738 31.8765 20.8223C32.1382 20.9707 32.3433 21.1836 32.4917 21.4609C32.6441 21.7383 32.7202 22.0977 32.7202 22.5391C32.7202 23.0625 32.5952 23.5078 32.3452 23.875C32.0991 24.2422 31.7456 24.5215 31.2847 24.7129C30.8277 24.9043 30.2847 25 29.6558 25H26.5796V16.4336ZM27.9859 19.9668H29.3335C29.9702 19.9668 30.4116 19.8633 30.6577 19.6562C30.9038 19.4492 31.0269 19.1465 31.0269 18.748C31.0269 18.3418 30.8804 18.0488 30.5874 17.8691C30.2984 17.6895 29.8374 17.5996 29.2046 17.5996H27.9859V19.9668ZM27.9859 21.1035V23.8223H29.4683C30.1245 23.8223 30.5855 23.6953 30.8511 23.4414C31.1167 23.1875 31.2495 22.8438 31.2495 22.4102C31.2495 22.1445 31.189 21.9141 31.0679 21.7188C30.9507 21.5234 30.7573 21.373 30.4878 21.2676C30.2183 21.1582 29.855 21.1035 29.398 21.1035H27.9859ZM43.1752 20.7051C43.1752 21.3652 43.0912 21.9668 42.9233 22.5098C42.7592 23.0488 42.5112 23.5137 42.1791 23.9043C41.8471 24.291 41.4311 24.5898 40.9311 24.8008C40.4311 25.0117 39.8452 25.1172 39.1733 25.1172C38.4897 25.1172 37.8959 25.0117 37.392 24.8008C36.892 24.5898 36.476 24.2891 36.144 23.8984C35.8159 23.5078 35.5698 23.041 35.4057 22.498C35.2416 21.9551 35.1596 21.3535 35.1596 20.6934C35.1596 19.8105 35.3041 19.041 35.5932 18.3848C35.8862 17.7246 36.3295 17.2129 36.9233 16.8496C37.5209 16.4824 38.2748 16.2988 39.185 16.2988C40.0756 16.2988 40.8159 16.4805 41.4057 16.8438C41.9955 17.207 42.437 17.7188 42.7299 18.3789C43.0268 19.0352 43.1752 19.8105 43.1752 20.7051ZM36.6362 20.7051C36.6362 21.3652 36.726 21.9375 36.9057 22.4219C37.0854 22.9023 37.3608 23.2734 37.7319 23.5352C38.1069 23.793 38.5873 23.9219 39.1733 23.9219C39.7631 23.9219 40.2436 23.793 40.6147 23.5352C40.9858 23.2734 41.2592 22.9023 41.435 22.4219C41.6108 21.9375 41.6987 21.3652 41.6987 20.7051C41.6987 19.7012 41.4975 18.916 41.0952 18.3496C40.6967 17.7793 40.06 17.4941 39.185 17.4941C38.5991 17.4941 38.1166 17.623 37.7377 17.8809C37.3627 18.1387 37.0854 18.5078 36.9057 18.9883C36.726 19.4648 36.6362 20.0371 36.6362 20.7051ZM53.7005 20.7051C53.7005 21.3652 53.6166 21.9668 53.4486 22.5098C53.2845 23.0488 53.0365 23.5137 52.7045 23.9043C52.3724 24.291 51.9564 24.5898 51.4564 24.8008C50.9564 25.0117 50.3705 25.1172 49.6986 25.1172C49.015 25.1172 48.4212 25.0117 47.9173 24.8008C47.4173 24.5898 47.0013 24.2891 46.6693 23.8984C46.3412 23.5078 46.0951 23.041 45.931 22.498C45.767 21.9551 45.6849 21.3535 45.6849 20.6934C45.6849 19.8105 45.8295 19.041 46.1185 18.3848C46.4115 17.7246 46.8548 17.2129 47.4486 16.8496C48.0462 16.4824 48.8002 16.2988 49.7103 16.2988C50.6009 16.2988 51.3412 16.4805 51.931 16.8438C52.5209 17.207 52.9623 17.7188 53.2552 18.3789C53.5521 19.0352 53.7005 19.8105 53.7005 20.7051ZM47.1615 20.7051C47.1615 21.3652 47.2513 21.9375 47.431 22.4219C47.6107 22.9023 47.8861 23.2734 48.2572 23.5352C48.6322 23.793 49.1127 23.9219 49.6986 23.9219C50.2884 23.9219 50.7689 23.793 51.14 23.5352C51.5111 23.2734 51.7845 22.9023 51.9603 22.4219C52.1361 21.9375 52.224 21.3652 52.224 20.7051C52.224 19.7012 52.0228 18.916 51.6205 18.3496C51.222 17.7793 50.5853 17.4941 49.7103 17.4941C49.1244 17.4941 48.642 17.623 48.263 17.8809C47.888 18.1387 47.6107 18.5078 47.431 18.9883C47.2513 19.4648 47.1615 20.0371 47.1615 20.7051ZM63.1536 25H61.5364L58.8704 21.1094L58.0266 21.7949V25H56.6204V16.4336H58.0266V20.5293C58.1985 20.3184 58.3723 20.1074 58.5481 19.8965C58.7239 19.6855 58.8997 19.4746 59.0755 19.2637L61.4895 16.4336H63.0774L59.8782 20.1836L63.1536 25ZM74.8702 25L74.0323 22.6211H70.757L69.9191 25H68.4366L71.6241 16.3984H73.1827L76.3644 25H74.8702ZM73.6691 21.4141L72.8546 19.0703C72.8234 18.9688 72.7784 18.8262 72.7198 18.6426C72.6613 18.4551 72.6027 18.2656 72.5441 18.0742C72.4855 17.8789 72.4366 17.7148 72.3976 17.582C72.3585 17.7422 72.3097 17.9219 72.2511 18.1211C72.1964 18.3164 72.1417 18.5 72.087 18.6719C72.0363 18.8438 71.9972 18.9766 71.9698 19.0703L71.1495 21.4141H73.6691ZM87.7177 22.668C87.7177 23.1758 87.5927 23.6133 87.3427 23.9805C87.0966 24.3477 86.7412 24.6289 86.2763 24.8242C85.8154 25.0195 85.2646 25.1172 84.624 25.1172C84.3115 25.1172 84.0127 25.0996 83.7275 25.0645C83.4423 25.0293 83.1728 24.9785 82.9189 24.9121C82.6689 24.8418 82.4404 24.7578 82.2334 24.6602V23.3359C82.581 23.4883 82.9697 23.627 83.3994 23.752C83.8291 23.873 84.2666 23.9336 84.7119 23.9336C85.0752 23.9336 85.3759 23.8867 85.6142 23.793C85.8564 23.6953 86.0361 23.5586 86.1533 23.3828C86.2705 23.2031 86.3291 22.9941 86.3291 22.7559C86.3291 22.502 86.2607 22.2871 86.124 22.1113C85.9873 21.9355 85.7802 21.7754 85.5029 21.6309C85.2295 21.4824 84.8857 21.3242 84.4716 21.1562C84.1904 21.043 83.9209 20.9141 83.663 20.7695C83.4091 20.625 83.1826 20.4551 82.9834 20.2598C82.7841 20.0645 82.6259 19.834 82.5088 19.5684C82.3955 19.2988 82.3388 18.9824 82.3388 18.6191C82.3388 18.1348 82.4541 17.7207 82.6845 17.377C82.9189 17.0332 83.247 16.7695 83.6689 16.5859C84.0947 16.4023 84.5908 16.3105 85.1572 16.3105C85.6064 16.3105 86.0283 16.3574 86.4228 16.4512C86.8213 16.5449 87.2119 16.6777 87.5947 16.8496L87.1494 17.9805C86.7978 17.8359 86.456 17.7207 86.124 17.6348C85.7959 17.5488 85.4599 17.5059 85.1162 17.5059C84.8193 17.5059 84.5673 17.5508 84.3603 17.6406C84.1533 17.7305 83.9951 17.8574 83.8857 18.0215C83.7802 18.1816 83.7275 18.373 83.7275 18.5957C83.7275 18.8457 83.788 19.0566 83.9091 19.2285C84.0341 19.3965 84.2255 19.5508 84.4834 19.6914C84.7451 19.832 85.081 19.9883 85.4912 20.1602C85.9638 20.3555 86.3642 20.5605 86.6923 20.7754C87.0244 20.9902 87.2783 21.248 87.4541 21.5488C87.6298 21.8457 87.7177 22.2188 87.7177 22.668ZM95.3016 25H90.4501V16.4336H95.3016V17.6172H91.8563V19.9434H95.0848V21.1211H91.8563V23.8105H95.3016V25ZM100.641 16.4336C101.38 16.4336 101.989 16.5234 102.47 16.7031C102.954 16.8828 103.313 17.1562 103.548 17.5234C103.786 17.8906 103.905 18.3574 103.905 18.9238C103.905 19.3457 103.827 19.7051 103.671 20.002C103.514 20.2988 103.309 20.5449 103.055 20.7402C102.802 20.9355 102.53 21.0918 102.241 21.209L104.673 25H103.085L101.016 21.5664H99.6395V25H98.2332V16.4336H100.641ZM100.548 17.6055H99.6395V20.4062H100.612C101.264 20.4062 101.737 20.2852 102.03 20.043C102.327 19.8008 102.475 19.4434 102.475 18.9707C102.475 18.4746 102.317 18.123 102.001 17.916C101.688 17.709 101.204 17.6055 100.548 17.6055ZM113.329 16.4336L110.335 25H108.846L105.852 16.4336H107.294L109.098 21.8008C109.153 21.957 109.212 22.1465 109.274 22.3691C109.341 22.5918 109.401 22.8164 109.456 23.043C109.514 23.2695 109.559 23.4707 109.591 23.6465C109.622 23.4707 109.665 23.2695 109.719 23.043C109.778 22.8164 109.839 22.5918 109.901 22.3691C109.964 22.1465 110.022 21.9551 110.077 21.7949L111.887 16.4336H113.329ZM115.534 25V16.4336H116.94V25H115.534ZM123.932 17.5059C123.522 17.5059 123.155 17.5801 122.831 17.7285C122.51 17.877 122.239 18.0918 122.016 18.373C121.794 18.6504 121.624 18.9883 121.506 19.3867C121.389 19.7812 121.331 20.2266 121.331 20.7227C121.331 21.3867 121.424 21.959 121.612 22.4395C121.799 22.916 122.085 23.2832 122.467 23.541C122.85 23.7949 123.335 23.9219 123.92 23.9219C124.284 23.9219 124.637 23.8867 124.981 23.8164C125.325 23.7461 125.68 23.6504 126.047 23.5293V24.7246C125.7 24.8613 125.348 24.9609 124.993 25.0234C124.637 25.0859 124.227 25.1172 123.762 25.1172C122.887 25.1172 122.161 24.9355 121.583 24.5723C121.008 24.209 120.579 23.6973 120.294 23.0371C120.012 22.377 119.872 21.6035 119.872 20.7168C119.872 20.0684 119.961 19.4746 120.141 18.9355C120.321 18.3965 120.583 17.9316 120.926 17.541C121.27 17.1465 121.694 16.8438 122.198 16.6328C122.706 16.418 123.286 16.3105 123.938 16.3105C124.368 16.3105 124.79 16.3594 125.204 16.457C125.622 16.5508 126.008 16.6855 126.364 16.8613L125.872 18.0215C125.575 17.8809 125.264 17.7598 124.94 17.6582C124.616 17.5566 124.28 17.5059 123.932 17.5059ZM133.819 25H128.967V16.4336H133.819V17.6172H130.374V19.9434H133.602V21.1211H130.374V23.8105H133.819V25Z" fill="#303030"/>
</svg>
